<svg width="4496" height="1000" viewBox="0 0 4496 1000" fill="none" xmlns="http://www.w3.org/2000/svg">
<path d="M4067.03 361.936H4174.2L4267.18 630.644C4272.7 647.192 4273.49 662.164 4273.49 677.924C4273.49 683.44 4274.27 691.32 4282.94 691.32C4291.61 691.32 4292.4 684.228 4292.4 677.924C4292.4 662.952 4293.97 647.192 4299.49 630.644L4388.53 361.936H4495.7L4319.19 826.068C4290.82 900.14 4251.42 929.296 4178.93 929.296H4103.28V841.04H4137.95C4197.84 841.04 4209.66 841.04 4220.69 808.732L4229.36 783.516L4067.03 361.936Z" fill="black"/>
<path d="M3658.42 663.74C3658.42 571.544 3726.18 537.66 3809.71 532.932C3883.78 528.992 3949.19 536.084 3948.4 497.472C3947.61 469.104 3936.58 437.584 3864.87 437.584C3793.95 437.584 3775.83 466.74 3770.31 500.624H3671.02C3685.21 395.82 3775.04 355.632 3868.02 355.632C3963.37 355.632 4049.26 387.152 4049.26 547.904V778H3948.4V748.844C3948.4 729.932 3953.13 716.536 3960.22 703.14C3963.37 696.048 3966.52 688.168 3959.43 685.016C3951.55 681.864 3948.4 689.744 3946.82 693.684C3923.18 751.208 3877.48 784.304 3803.41 784.304C3725.39 784.304 3658.42 733.872 3658.42 663.74ZM3948.4 563.664C3924.76 589.668 3886.93 593.608 3827.05 599.912C3783.71 604.64 3759.28 621.188 3759.28 658.224C3759.28 692.896 3792.37 714.96 3838.87 708.656C3892.45 701.564 3947.61 666.892 3948.4 563.664Z" fill="black"/>
<path d="M3433.03 223.248C3589.05 223.248 3648.94 305.2 3648.94 399.76C3648.94 494.32 3576.44 576.272 3445.64 576.272H3314.83V778H3207.66V223.248H3433.03ZM3444.85 488.016C3505.52 488.016 3541.77 450.98 3541.77 402.912C3541.77 349.328 3505.52 317.808 3444.85 317.808H3314.83V488.016H3444.85Z" fill="black"/>
<path d="M2901.54 450.192H2788.07V640.1C2788.07 685.804 2788.86 689.744 2831.41 689.744H2901.54V778H2810.13C2726.6 778 2687.2 750.42 2687.2 650.344V450.192H2611.56V361.936H2687.2V248.464H2788.07V361.936H2901.54V450.192Z" fill="black"/>
<path d="M2472.39 311.504V210.64H2573.25V311.504H2472.39ZM2472.39 778V361.936H2573.25V778H2472.39Z" fill="black"/>
<path d="M2289.24 210.64H2390.1V778H2289.24V210.64Z" fill="black"/>
<path d="M1916.84 361.936V377.696C1916.84 394.244 1912.9 406.852 1905.81 421.036C1902.66 428.916 1897.14 438.372 1905.02 442.312C1912.9 446.252 1917.63 436.008 1919.21 432.856C1944.42 388.728 1986.19 355.632 2050.8 355.632C2158.76 355.632 2232.04 450.192 2232.04 569.968C2232.04 689.744 2158.76 784.304 2050.8 784.304C1987.76 784.304 1944.42 751.996 1919.21 706.292C1917.63 703.928 1914.48 696.048 1907.39 698.412C1898.72 701.564 1901.87 709.444 1905.81 717.324C1912.9 731.508 1916.84 744.116 1916.84 759.876V929.296H1815.98V361.936H1916.84ZM2027.16 692.896C2098.08 692.896 2131.18 636.16 2131.18 569.968C2131.18 503.776 2098.08 447.04 2027.16 447.04C1960.97 447.04 1916.84 503.776 1916.84 569.968C1916.84 636.16 1960.97 692.896 2027.16 692.896Z" fill="black"/>
<path d="M1540.16 438.372C1670.18 453.344 1760.8 486.44 1760.8 612.52C1760.8 703.928 1682 784.304 1533.86 784.304C1379.41 784.304 1306.91 685.016 1306.91 582.576H1410.93C1412.5 625.128 1432.2 696.048 1533.86 696.048C1626.05 696.048 1653.63 649.556 1653.63 618.824C1653.63 581 1629.2 553.42 1533.86 540.812C1376.26 520.324 1325.82 469.104 1325.82 374.544C1325.82 287.864 1403.84 216.944 1535.43 216.944C1679.64 216.944 1738.74 303.624 1740.31 393.456H1638.66C1638.66 357.208 1614.23 305.2 1533.86 305.2C1452.69 305.2 1432.2 346.176 1432.2 369.816C1432.2 391.092 1442.45 427.34 1540.16 438.372Z" fill="black"/>
<mask id="mask0_78_137" style="mask-type:alpha" maskUnits="userSpaceOnUse" x="0" y="0" width="1000" height="1000">
<circle cx="500" cy="500" r="500" fill="black"/>
</mask>
<g mask="url(#mask0_78_137)">
<path d="M146.446 853.554C240.214 947.322 367.391 1000 500 1000C632.608 1000 759.785 947.322 853.553 853.554C947.321 759.786 999.999 632.609 999.999 500.001C999.999 367.392 947.321 240.215 853.553 146.447L146.446 853.554Z" fill="url(#paint0_linear_78_137)"/>
<path d="M853.553 146.447C759.785 52.6785 632.608 3.93114e-05 500 0C367.392 -3.93113e-05 240.215 52.6783 146.447 146.447C52.6784 240.215 2.54241e-05 367.392 0 500C-2.54241e-05 632.608 52.6783 759.785 146.446 853.553L853.553 146.447Z" fill="url(#paint1_linear_78_137)"/>
<g opacity="0.5" style="mix-blend-mode:soft-light">
<path d="M975 500.001C975 382.382 931.375 269.261 853.087 182.269L182.269 853.087C269.261 931.375 382.382 975.001 500.001 975.001V1000L496.894 999.991C365.407 999.175 239.483 946.589 146.447 853.554L853.554 146.447C947.322 240.215 1000 367.393 1000 500.001L999.99 503.107C999.174 634.594 946.589 760.519 853.554 853.555L851.35 855.744C757.798 948.142 631.573 1000 500.001 1000V975.001C625.978 975.001 746.796 924.956 835.876 835.877C924.956 746.797 975 625.979 975 500.001Z" fill="url(#paint2_linear_78_137)"/>
</g>
<g opacity="0.5" style="mix-blend-mode:soft-light">
<path d="M503.106 0.00976562C634.593 0.825668 760.517 53.4108 853.553 146.446L146.446 853.554C53.4106 760.518 0.825588 634.593 0.00976562 503.106L0 500C2.54241e-05 367.392 52.6782 240.214 146.446 146.446C240.214 52.6781 367.392 -3.93113e-05 500 0L503.106 0.00976562ZM25 500C25 617.619 68.6257 730.738 146.913 817.73L817.73 146.913C730.738 68.6256 617.619 25.0001 500 25C374.022 25 253.204 75.0443 164.124 164.124C75.0443 253.204 25 374.022 25 500Z" fill="url(#paint3_linear_78_137)"/>
</g>
</g>
<defs>
<linearGradient id="paint0_linear_78_137" x1="146" y1="854" x2="854" y2="146" gradientUnits="userSpaceOnUse">
<stop offset="0.2" stop-color="#EC683D"/>
<stop offset="0.95" stop-color="#EC683D" stop-opacity="0"/>
</linearGradient>
<linearGradient id="paint1_linear_78_137" x1="148.5" y1="854" x2="854" y2="145.5" gradientUnits="userSpaceOnUse">
<stop offset="0.05" stop-color="#EC683D" stop-opacity="0"/>
<stop offset="0.8" stop-color="#EC683D"/>
</linearGradient>
<linearGradient id="paint2_linear_78_137" x1="146.5" y1="853.5" x2="853.5" y2="146.5" gradientUnits="userSpaceOnUse">
<stop offset="0.05"/>
<stop offset="0.75" stop-color="white"/>
</linearGradient>
<linearGradient id="paint3_linear_78_137" x1="146.5" y1="853.5" x2="853.5" y2="146.5" gradientUnits="userSpaceOnUse">
<stop offset="0.25" stop-color="white"/>
<stop offset="0.95"/>
</linearGradient>
</defs>
</svg>
